<mxfile host="app.diagrams.net" modified="2023-08-26T06:58:14.416Z" agent="Mozilla/5.0 (Windows NT 10.0; Win64; x64) AppleWebKit/537.36 (KHTML, like Gecko) Chrome/116.0.0.0 Safari/537.36 Edg/116.0.1938.54" version="21.6.8" etag="nE3IIx2YfhvuviAEQC5B" type="github">
  <diagram name="第 1 页" id="IHnJ2mCHmTsgJI9gZ5m0">
    <mxGraphModel>
      <root>
        <mxCell id="0" />
        <mxCell id="1" parent="0" />
      </root>
    </mxGraphModel>
  </diagram>
</mxfile>
